<svg width="48" height="48" viewBox="0 0 48 48" fill="none" xmlns="http://www.w3.org/2000/svg">
<path d="M5.41835 3.11533C4.98359 3.36142 5.0082 2.08175 5 23.9756C5 39.5942 5.02461 44.3848 5.09844 44.5489C5.31992 45.0328 4.22071 45 21.9311 45H38.2223L38.4848 44.7621L38.7555 44.5242L38.7801 41.4891L38.8047 38.454L39.0508 38.3556C39.3953 38.2079 39.5348 37.888 39.5348 37.2317L39.543 36.6739L40.1828 36.4196L40.8308 36.1736L41.282 36.6083C41.6676 36.9775 41.7824 37.0431 42.0449 37.0431C42.3484 37.0431 42.4386 36.961 43.9808 35.4189C45.523 33.8767 45.605 33.7865 45.605 33.483C45.605 33.2205 45.5394 33.1056 45.1703 32.7201L44.7273 32.2607L44.9816 31.6209L45.2359 30.981L45.7855 30.9728C46.089 30.9728 46.4335 30.9318 46.5484 30.8744C46.9667 30.6857 46.9995 30.5053 46.9995 28.233C46.9995 27.0846 46.9667 26.051 46.9175 25.9362C46.7945 25.608 46.4745 25.4522 45.8101 25.4112L45.2031 25.3702L45.1046 25.0749C45.0554 24.9108 44.9406 24.6483 44.8585 24.4842L44.7109 24.1889L45.039 23.869C45.4492 23.4753 45.605 23.1882 45.605 22.8436C45.605 22.6057 45.4328 22.4007 44.1121 21.0636C43.2836 20.2351 42.5043 19.505 42.3812 19.4394C42.0367 19.2589 41.7004 19.3655 41.2164 19.8249L40.7898 20.2269L40.1664 19.9726L39.5348 19.7183V19.1687C39.5348 18.5206 39.4199 18.2581 39.0672 18.0941L38.8047 17.971L38.7801 10.7277L38.7555 3.47626L38.4848 3.23838L38.2223 3.00049H21.9147C8.54371 3.00869 5.58242 3.0251 5.41835 3.11533ZM13.4491 5.4614V6.2817H11.1933C9.62651 6.2817 8.88003 6.31451 8.73238 6.38014C8.2484 6.60162 8.28121 5.42859 8.28121 23.9921C8.28121 37.0431 8.30582 41.1036 8.37965 41.2676C8.59293 41.7434 7.78903 41.7188 21.9311 41.7188H34.9411L35.2036 41.4809L35.4743 41.243L35.4989 39.8403L35.5235 38.4376H36.3438H37.1559V40.8985V43.3594H21.8982H6.64061V24.0003V4.6411H10.0449H13.4491V5.4614ZM28.7068 6.03561V7.43013H27.1072C25.3763 7.43013 25.1631 7.47114 24.9662 7.84848C24.8185 8.13559 24.8185 8.36527 24.9662 8.65238C25.1713 9.04612 25.3435 9.07073 27.6404 9.07073H29.7732L30.0193 8.84105C30.2079 8.68519 30.29 8.52113 30.3228 8.26684L30.372 7.92231H32.1192H33.8747V13.8449V19.7757L33.2923 20.0136L32.7098 20.2433L32.2915 19.8331C31.8157 19.3737 31.5614 19.2753 31.2087 19.4066C30.8888 19.5296 28.1736 22.2202 28.0013 22.5893C27.8208 22.9749 27.9029 23.2292 28.3951 23.7296L28.8134 24.1561L28.6083 24.6319C28.4935 24.8944 28.3786 25.1651 28.354 25.2389C28.3212 25.3373 28.1654 25.3784 27.6896 25.4112C26.9595 25.4604 26.697 25.5998 26.5822 26.0264C26.533 26.2069 26.4919 27.183 26.4919 28.2658C26.4919 30.8088 26.5658 30.9728 27.7306 30.9728H28.2638L28.5263 31.6045L28.7888 32.2279L28.3868 32.6545C27.9275 33.1384 27.8208 33.4748 28.0013 33.8193C28.0669 33.9423 28.797 34.7216 29.6255 35.5419C30.9626 36.8708 31.1677 37.0431 31.4056 37.0431C31.7501 37.0431 32.0372 36.8872 32.4309 36.4853L32.7427 36.1572L33.1692 36.3458C33.3989 36.4443 33.6532 36.5509 33.7352 36.5755C33.8583 36.6247 33.8747 36.7806 33.8747 38.3556V40.0782H21.8982H9.92182V24.0003V7.92231H11.6855H13.4491V8.1684C13.4491 8.51293 13.6378 8.85745 13.9003 8.9723C14.0479 9.03792 14.778 9.07073 16.2792 9.07073C18.617 9.07073 18.7893 9.04612 18.9944 8.65238C19.1338 8.37348 19.142 8.1602 19.0108 7.88129C18.8303 7.47114 18.6088 7.43013 16.7714 7.43013H15.0897V6.03561V4.6411H21.8982H28.7068V6.03561ZM37.1559 11.2856V17.93H36.3356H35.5153L35.4989 12.3437L35.4743 6.75748L35.2036 6.51959L34.9411 6.2817H32.6442H30.3474V5.4614V4.6411H33.7516H37.1559V11.2856ZM37.8942 20.0956C37.8942 20.8093 38.0336 20.9733 38.9031 21.2604C39.2723 21.3753 39.8629 21.6214 40.2074 21.8018C40.9703 22.1874 41.1508 22.1792 41.7086 21.687L42.0941 21.3507L42.8652 22.1218L43.6363 22.8846L43.3574 23.18C42.7914 23.7706 42.775 24.0085 43.2179 24.8862C43.3984 25.2389 43.6199 25.7885 43.7183 26.1166C43.9562 26.8877 44.1367 27.0354 44.8339 27.0354H45.3589V28.1838V29.3322H44.9078C44.6535 29.3322 44.3417 29.3896 44.2105 29.4553C43.9808 29.5701 43.948 29.6439 43.5871 30.7021C43.5132 30.9236 43.3246 31.3256 43.1769 31.6127C42.7832 32.3345 42.7996 32.6052 43.2672 33.0892L43.6281 33.4748L42.8406 34.2705L42.0449 35.0661L41.6594 34.7052C41.159 34.2376 40.8965 34.2212 40.1746 34.615C39.8875 34.7626 39.4856 34.9513 39.2723 35.0251C38.2059 35.3861 38.1321 35.4189 38.0172 35.6486C37.9516 35.7798 37.8942 36.0915 37.8942 36.3458V36.797H36.7457H35.5973V36.272C35.5973 35.5911 35.4415 35.4025 34.654 35.1564C34.3423 35.0497 33.7926 34.8283 33.4399 34.656C32.5622 34.213 32.3325 34.2294 31.7419 34.7954L31.4466 35.0744L30.6837 34.3033L29.9126 33.5322L30.2489 33.1466C30.7411 32.5888 30.7493 32.4084 30.3638 31.6455C30.1833 31.301 29.9372 30.7103 29.8224 30.3412C29.5353 29.4717 29.3712 29.3322 28.6493 29.3322H28.1244L28.149 28.2002L28.1736 27.0764L28.7232 27.0518C29.3958 27.019 29.6009 26.8467 29.806 26.1248C29.8798 25.8459 30.1095 25.2717 30.3146 24.8534C30.7575 23.951 30.7493 23.8362 30.2489 23.2948L29.9044 22.9257L30.7001 22.1382L31.4876 21.3425L31.8567 21.687C32.3817 22.171 32.5294 22.1874 33.2759 21.8182C33.6286 21.6542 34.211 21.4081 34.5637 21.2933C35.4579 20.9815 35.5973 20.8421 35.5973 20.194C35.5973 19.9069 35.6219 19.6526 35.6547 19.628C35.6793 19.5952 36.1961 19.5706 36.8032 19.5706H37.8942V20.0956Z" fill="#E97A4E"/>
<path d="M21.5783 7.54504C20.8646 7.93878 21.1681 9.0708 21.9802 9.0708C22.3986 9.0708 22.8005 8.66885 22.8005 8.2587C22.8005 7.64347 22.1197 7.24152 21.5783 7.54504Z" fill="#E97A4E"/>
<path d="M16.1972 11.8598C16.107 11.8926 15.6148 12.352 15.098 12.877L14.1547 13.8203L13.8019 13.5004C13.5148 13.2297 13.3918 13.1723 13.1129 13.1723C12.6535 13.1723 12.3008 13.5168 12.3008 13.9598C12.3008 14.2387 12.3746 14.3371 13.0637 15.0344C13.7691 15.7398 13.8512 15.7972 14.1465 15.7972C14.4582 15.7972 14.532 15.7316 15.8855 14.3781C17.2226 13.041 17.3046 12.9426 17.3046 12.6555C17.3046 12.2535 17.198 12.0567 16.8945 11.9008C16.632 11.7613 16.4433 11.7531 16.1972 11.8598Z" fill="#E97A4E"/>
<path d="M19.0847 13.4594C18.814 13.7383 18.7566 14.05 18.9288 14.4027C19.0273 14.5996 19.1585 14.7226 19.3554 14.7883C19.8148 14.9441 30.5853 14.9359 30.9627 14.78C31.5369 14.534 31.6681 13.8367 31.2088 13.4347L30.9955 13.2543H25.1467H19.298L19.0847 13.4594Z" fill="#E97A4E"/>
<path d="M16.1152 17.2902C16.025 17.3394 15.5328 17.7823 15.0324 18.2827L14.1054 19.1933L13.7773 18.8734C13.4984 18.6027 13.3918 18.5452 13.1129 18.5452C12.6699 18.5452 12.3008 18.9308 12.3008 19.3737C12.3008 19.6362 12.3828 19.7593 12.9652 20.3499C13.3344 20.7272 13.7363 21.08 13.8594 21.1292C14.3023 21.3097 14.5648 21.1374 15.9757 19.7019C17.2718 18.3976 17.3046 18.3484 17.3046 18.012C17.3046 17.3886 16.6566 16.9949 16.1152 17.2902Z" fill="#E97A4E"/>
<path d="M19.2241 18.7421C18.7401 19.0374 18.6909 19.6608 19.1257 20.0217L19.3717 20.2268H23.5143H27.6568L27.8947 19.9889C28.149 19.7264 28.2146 19.2999 28.0424 18.9799C27.8373 18.6026 27.6568 18.5862 23.4405 18.5862C19.6917 18.5862 19.462 18.5944 19.2241 18.7421Z" fill="#E97A4E"/>
<path d="M16.2793 22.6222C16.1234 22.6632 15.6886 23.0241 15.098 23.6229L14.1629 24.5663L13.8265 24.2792C13.4492 23.9593 13.2195 23.8772 12.9078 23.9511C12.5469 24.0495 12.3008 24.3612 12.3008 24.7467C12.3008 25.0585 12.35 25.1323 13.0226 25.8131C13.7117 26.5104 13.7527 26.5432 14.1054 26.5432C14.4664 26.5432 14.4746 26.535 15.8855 25.1241C17.2062 23.8116 17.3046 23.6886 17.3046 23.4097C17.3046 23.2128 17.239 23.0323 17.0996 22.8683C16.8699 22.5976 16.6402 22.5237 16.2793 22.6222Z" fill="#E97A4E"/>
<path d="M19.1011 24.23C18.9124 24.4023 18.8468 24.5335 18.8386 24.755C18.8304 25.0995 19.0355 25.4523 19.3226 25.5589C19.6425 25.6819 24.4331 25.6655 24.6874 25.5343C24.8022 25.4769 24.9581 25.2964 25.0401 25.1323C25.1714 24.8616 25.1714 24.8042 25.0729 24.5499C24.835 24.0003 24.8596 24.0003 21.964 24.0003H19.3554L19.1011 24.23Z" fill="#E97A4E"/>
<path d="M16.1972 28.0197C16.107 28.0525 15.6148 28.5119 15.098 29.0369L14.1547 29.9802L13.8019 29.6603C13.5148 29.3896 13.3918 29.3322 13.1129 29.3322C12.6535 29.3322 12.3008 29.6767 12.3008 30.1197C12.3008 30.3986 12.3746 30.497 13.0637 31.1943C13.7691 31.8997 13.8512 31.9572 14.1465 31.9572C14.4582 31.9572 14.532 31.8915 15.8855 30.538C17.2472 29.1763 17.3046 29.1107 17.3046 28.799C17.2964 28.1838 16.7386 27.79 16.1972 28.0197Z" fill="#E97A4E"/>
<path d="M19.0847 29.6194C18.8304 29.8819 18.7648 30.2018 18.9124 30.5463C19.1093 31.0221 19.298 31.0549 21.9968 31.0549C24.1214 31.0549 24.4331 31.0385 24.6874 30.9073C25.1796 30.6612 25.278 30.0213 24.876 29.6194L24.6628 29.4143H21.9804H19.298L19.0847 29.6194Z" fill="#E97A4E"/>
<path d="M16.0742 33.483C15.9593 33.5568 15.4754 34.008 14.9914 34.492L14.1054 35.3533L13.843 35.099C13.6953 34.9595 13.4902 34.8037 13.3836 34.7545C12.9324 34.5166 12.3008 34.9842 12.3008 35.542C12.3008 35.7963 12.391 35.9193 13.0144 36.5591C13.7937 37.3548 14.0562 37.4861 14.4828 37.2646C14.614 37.199 15.3031 36.5509 16.0168 35.8291C17.2636 34.5576 17.3046 34.5084 17.3046 34.1721C17.3046 33.5158 16.6074 33.1303 16.0742 33.483Z" fill="#E97A4E"/>
<path d="M19.2897 34.8693C18.7647 35.099 18.6745 35.8044 19.1257 36.1818L19.3718 36.3868H22.8088C25.0154 36.3868 26.3115 36.354 26.4182 36.3048C26.615 36.1982 26.8201 35.8044 26.8201 35.5337C26.8201 35.4189 26.7135 35.2056 26.5822 35.0579L26.3443 34.7872L22.9483 34.7708C20.1428 34.7544 19.5112 34.7708 19.2897 34.8693Z" fill="#E97A4E"/>
<path d="M38.6735 24.1971C38.5422 24.2627 37.8368 24.9026 37.1149 25.6326L35.8024 26.9533L35.2692 26.4201C34.654 25.8131 34.3833 25.6819 34.006 25.8049C33.6532 25.9198 31.2005 28.3889 31.1267 28.7006C31.0939 28.8236 31.1103 29.0287 31.1595 29.16C31.2169 29.283 31.9634 30.0951 32.8329 30.9564C34.6376 32.7447 34.8509 32.8923 35.8024 32.8923C36.8032 32.8923 36.8934 32.8267 39.6332 30.0869C42.25 27.4865 42.3156 27.3963 42.0531 26.9041C41.8645 26.5596 39.5348 24.2709 39.2641 24.1643C38.977 24.0659 38.977 24.0659 38.6735 24.1971ZM39.5922 26.6416C39.8793 26.9205 40.109 27.1912 40.109 27.2404C40.109 27.3881 36.3028 31.1287 36.0567 31.2189C35.6384 31.3748 35.3677 31.2025 34.2028 30.0295L33.0954 28.9221L33.6614 28.3561L34.2274 27.7818L34.8427 28.3561C35.4087 28.8811 35.4743 28.9221 35.8188 28.9221C36.1962 28.9221 36.1962 28.9221 37.5989 27.5276C38.37 26.7647 39.018 26.133 39.0426 26.133C39.059 26.133 39.3133 26.3627 39.5922 26.6416Z" fill="#E97A4E"/>
</svg>
