<svg width="48" height="48" viewBox="0 0 48 48" fill="none" xmlns="http://www.w3.org/2000/svg">
<path d="M22.2949 2.13658C19.6564 2.61296 17.247 4.6101 16.2851 7.12027C14.7827 10.9955 16.4317 15.7959 20.7008 20.0651C22.02 21.3751 23.4492 22.5111 23.7881 22.5111C24.1363 22.5111 25.5929 21.3568 26.8663 20.0834C29.9536 16.9686 31.6485 13.7255 31.8134 10.5557C32.1065 5.27887 27.4893 1.19297 22.2949 2.13658ZM25.7578 3.76727C26.793 4.09708 27.5717 4.58262 28.4146 5.42545C29.2482 6.25912 29.7338 7.02866 30.0819 8.0822C30.3018 8.73265 30.3292 8.95252 30.3201 10.0977C30.3201 11.1879 30.2834 11.5177 30.0819 12.278C29.3948 14.8615 27.3519 17.8114 24.6401 20.1475L23.7881 20.8804L22.9453 20.1475C20.1695 17.7473 18.1906 14.889 17.4944 12.2872C17.2928 11.5177 17.2562 11.1879 17.2562 10.0977C17.247 8.96168 17.2745 8.73265 17.4852 8.10969C17.8517 7.0195 18.3281 6.2408 19.1526 5.41629C20.1603 4.40856 21.3146 3.79476 22.643 3.5474C23.4492 3.40082 24.9333 3.51076 25.7578 3.76727Z" fill="#E97A4E"/>
<path d="M22.698 5.80113C20.3803 6.42409 18.942 8.83349 19.5283 11.1055C20.0963 13.2767 22.1942 14.7058 24.3746 14.3852C26.3259 14.1103 27.8466 12.5987 28.1215 10.6566C28.5612 7.60588 25.6571 5.0041 22.698 5.80113ZM25.025 7.40434C27.1962 8.43039 27.2787 11.4444 25.1624 12.6079C24.6127 12.9102 24.512 12.9377 23.7882 12.9377C23.1286 12.9285 22.9362 12.8919 22.5423 12.6904C21.8552 12.3331 21.5621 12.0491 21.2323 11.4353C20.3711 9.80457 21.1132 7.9082 22.8721 7.26692C23.4493 7.05621 24.4295 7.12034 25.025 7.40434Z" fill="#E97A4E"/>
<path d="M9.77156 17.2526C5.64902 18.526 4.284 18.9841 4.1649 19.1307C4.00916 19.3139 4 19.946 4 29.492V39.6518L4.21071 39.8533C4.35729 39.9999 6.94075 40.8336 14.1048 43.0231L23.7882 46.0005L33.4716 43.0231C40.6357 40.8336 43.2191 39.9999 43.3657 39.8533L43.5764 39.6518V29.492C43.5764 19.946 43.5673 19.3139 43.4207 19.1307C43.2924 18.9841 41.9274 18.526 37.7591 17.2435C34.7359 16.309 32.2165 15.5486 32.1524 15.5486C32.0058 15.5486 31.621 16.8404 31.7401 16.9136C31.7951 16.9411 33.719 17.5458 36.0093 18.2512C38.3087 18.9474 40.1868 19.5521 40.1868 19.5796C40.1868 19.6437 23.9806 24.6274 23.7882 24.6274C23.5867 24.6182 7.38965 19.6345 7.38965 19.5796C7.38965 19.5521 9.2677 18.9474 11.5672 18.2512C13.8575 17.5458 15.7813 16.9411 15.8363 16.9136C15.8912 16.877 15.8546 16.6205 15.7263 16.1991C15.5889 15.7135 15.4973 15.5486 15.3782 15.5578C15.2958 15.5578 12.7673 16.3273 9.77156 17.2526ZM14.2606 23.2807L23.0095 25.9741L23.037 35.1078L23.0553 44.2324L22.8538 44.1682C22.7347 44.1316 18.7862 42.9223 14.0773 41.4749L5.5116 38.8364L5.48412 29.7119C5.47495 24.6915 5.47495 20.5873 5.48412 20.5873C5.50244 20.5873 9.45092 21.7966 14.2606 23.2807ZM42.0923 29.7119L42.0648 38.8364L33.3159 41.5298C28.5062 43.0139 24.5578 44.2232 24.5394 44.2232C24.5303 44.2232 24.5303 40.119 24.5394 35.0986L24.5669 25.9741L33.2701 23.2898C38.0614 21.8149 42.0007 20.5965 42.0465 20.5965C42.0831 20.5873 42.1015 24.6915 42.0923 29.7119Z" fill="#E97A4E"/>
<path d="M10.4404 24.2334C10.3213 24.2517 10.1473 24.3708 10.0465 24.4991C9.87244 24.7189 9.86328 24.8655 9.86328 26.7802C9.86328 28.7682 9.87244 28.8323 10.074 29.0522C10.2389 29.2354 10.9901 29.5011 14.0316 30.4264C16.1021 31.0585 17.8885 31.5807 17.9984 31.5807C18.1175 31.5807 18.3099 31.4799 18.429 31.3517L18.658 31.1318V29.0339C18.658 27.165 18.6397 26.9085 18.5023 26.7344C18.374 26.5878 17.4671 26.2672 14.9019 25.4885C10.6237 24.1693 10.6878 24.1876 10.4404 24.2334ZM16.1662 27.4215L17.1922 27.7421V28.7957C17.1922 29.611 17.1648 29.8492 17.0823 29.8217C17.0182 29.7943 15.699 29.3912 14.1507 28.9239L11.3291 28.0628V26.9909V25.9282L13.2346 26.5145C14.279 26.8352 15.5982 27.2383 16.1662 27.4215Z" fill="#E97A4E"/>
<path d="M14.2605 39.3769C14.1505 39.7341 14.0773 40.0365 14.0956 40.0548C14.1414 40.0914 15.369 40.467 15.4606 40.467C15.5247 40.467 15.9095 39.3402 15.9095 39.157C15.9095 39.0929 14.8193 38.7264 14.6178 38.7264C14.5078 38.7264 14.4071 38.9005 14.2605 39.3769Z" fill="#E97A4E"/>
<path d="M17.2013 40.2473C17.0913 40.6321 17.0089 40.9527 17.0272 40.971C17.0639 40.9985 18.3556 41.3833 18.4197 41.3833C18.5113 41.3833 18.8595 40.0824 18.777 40.0091C18.7404 39.9725 18.4655 39.8717 18.1815 39.7893C17.8884 39.7068 17.6044 39.6152 17.5311 39.5877C17.4395 39.5602 17.3479 39.7434 17.2013 40.2473Z" fill="#E97A4E"/>
<path d="M20.1238 41.1634C20.0139 41.539 19.9406 41.8596 19.9497 41.878C19.9772 41.8963 20.7559 42.1253 21.2323 42.2627C21.3514 42.2994 21.4339 42.162 21.5896 41.6489C21.6995 41.2917 21.7545 40.9618 21.7087 40.9252C21.6537 40.8702 20.4628 40.4671 20.3528 40.4671C20.3437 40.4671 20.2429 40.7786 20.1238 41.1634Z" fill="#E97A4E"/>
<path d="M33.0776 25.3694C30.256 26.2305 29.1933 26.597 29.0834 26.7344C28.9368 26.9085 28.9185 27.165 28.9185 29.0339V31.1318L29.1475 31.3517C29.2666 31.4799 29.4681 31.5807 29.5781 31.5807C29.6972 31.5807 31.4836 31.0677 33.5449 30.4355C36.6139 29.4919 37.3376 29.2446 37.5117 29.0522C37.7041 28.8323 37.7132 28.7682 37.7132 26.7802C37.7132 24.8838 37.7041 24.7189 37.53 24.5082C37.4292 24.38 37.2552 24.2517 37.1269 24.2334C36.9986 24.2059 35.313 24.6823 33.0776 25.3694ZM36.2474 26.9818V28.0628L33.4349 28.9239C31.8775 29.3912 30.5583 29.7943 30.5033 29.8217C30.4117 29.8492 30.3843 29.611 30.3843 28.7957V27.7421L31.4195 27.4215C32.7662 27.0001 36.1925 25.9191 36.2291 25.9099C36.2383 25.9007 36.2474 26.3863 36.2474 26.9818Z" fill="#E97A4E"/>
<path d="M39.7286 36.6286C39.3988 36.7386 39.1057 36.8485 39.0598 36.8851C39.0049 36.9401 39.3072 38.1402 39.408 38.2502C39.4446 38.2868 40.6814 37.8929 40.7638 37.8104C40.8463 37.7371 40.4798 36.4362 40.3882 36.4454C40.3516 36.4454 40.0584 36.5279 39.7286 36.6286Z" fill="#E97A4E"/>
<path d="M36.7056 37.5538C36.3758 37.6638 36.0918 37.7554 36.0735 37.7737C35.9911 37.8378 36.4674 39.1845 36.5682 39.1571C36.6232 39.1296 36.9255 39.038 37.237 38.9555C37.5576 38.8639 37.8325 38.754 37.8599 38.7173C37.9332 38.5891 37.521 37.3523 37.411 37.3615C37.3469 37.3706 37.0354 37.4531 36.7056 37.5538Z" fill="#E97A4E"/>
<path d="M33.774 38.4699C33.4442 38.5707 33.1693 38.6623 33.151 38.6807C33.1327 38.699 33.206 39.0013 33.3159 39.3586C33.4625 39.8441 33.5449 40.009 33.664 40.009C33.8747 40.009 34.9649 39.6426 34.9649 39.5785C34.9649 39.3403 34.5618 38.2684 34.4794 38.2776C34.4152 38.2776 34.1038 38.36 33.774 38.4699Z" fill="#E97A4E"/>
</svg>
