<svg width="48" height="48" viewBox="0 0 48 48" fill="none" xmlns="http://www.w3.org/2000/svg">
<path d="M19.9533 3.19237C19.423 3.3811 19.2972 3.73161 19.3601 4.96286C19.3871 5.52906 19.441 6.11323 19.468 6.25702C19.5219 6.49968 19.5129 6.51765 19.3152 6.45474C18.3535 6.16715 17.1942 6.35588 16.3584 6.93106C15.3338 7.63207 14.8575 8.6656 14.9474 10.0137C14.9923 10.7327 14.9833 10.8046 14.8395 10.8046C14.543 10.8046 13.6173 11.3348 13.2398 11.7213C12.5028 12.4942 12.1254 13.6355 12.3051 14.6062C12.395 15.1095 12.377 15.2083 12.1703 15.2083C11.8737 15.2083 11.0379 15.6936 10.6335 16.0891C9.7887 16.9429 9.42023 18.264 9.74377 19.3604C9.91452 19.9626 9.91452 19.9716 9.77972 19.9716C9.49212 19.9716 8.68327 20.4479 8.3148 20.8343C7.26329 21.9038 7.02962 23.4406 7.70366 24.7707C7.83847 25.0493 8.35074 25.6515 8.99783 26.3076L10.0583 27.395L5.78938 31.655C3.43472 34.0006 1.39462 36.0857 1.25082 36.2744C0.927284 36.7058 0.918297 37.0383 1.21488 37.3888C1.48449 37.7124 1.84398 37.8112 2.21246 37.6764C2.36524 37.6225 4.38737 35.6633 6.96671 33.0839L11.4693 28.5903L11.8648 28.7701C12.431 29.0127 13.0061 29.0756 13.6173 28.9678C15.1631 28.6802 16.2955 27.5208 16.4213 26.0829C16.4752 25.5526 16.4752 25.5436 16.7718 25.4987C16.9425 25.4717 17.2122 25.4358 17.3739 25.4088C17.8772 25.3279 18.5513 24.9595 18.9916 24.5101C19.5848 23.917 19.8724 23.3238 19.9982 22.3891L20.0521 21.9757L20.5914 21.9218C21.6069 21.8319 22.6674 21.095 23.1437 20.1423C23.2696 19.9086 23.4134 19.4233 23.4763 19.0728L23.5841 18.4437H23.9077C24.9951 18.4347 26.1904 17.5989 26.7296 16.4665C26.9813 15.9453 27.0083 15.7925 27.0083 15.0645C27.0083 14.2916 26.9903 14.2017 26.6667 13.5816L26.3252 12.9166L29.4528 9.80698C32.805 6.46373 32.9039 6.38284 33.6408 6.52664C34.3418 6.66145 34.962 7.38941 34.962 8.08143C34.962 8.70155 34.7193 9.0161 32.4455 11.2989C30.2526 13.5007 30.1987 13.5636 30.1987 13.9231C30.1987 14.5343 30.8009 14.9567 31.3581 14.741C31.4929 14.696 32.4006 13.8602 33.3892 12.8806C35.3394 10.9484 35.5192 10.8225 36.2741 10.9394C36.7145 11.0023 37.2178 11.3797 37.4424 11.8021C37.5952 12.0987 37.6042 12.7548 37.4694 13.1143C37.4245 13.2491 36.5527 14.2017 35.5371 15.2173C33.5779 17.1945 33.533 17.2574 33.8026 17.8506C33.9374 18.1471 34.4497 18.3898 34.7642 18.3089C34.908 18.273 35.5731 17.6978 36.364 16.9069C37.1459 16.143 37.8648 15.5139 38.0536 15.433C38.9613 15.0555 40.0487 15.6397 40.2285 16.6193C40.3543 17.2754 40.1566 17.5809 38.6827 19.0818C37.8918 19.8907 37.2807 20.5827 37.2447 20.7175C37.0829 21.3915 37.6671 21.9847 38.3322 21.8229C38.458 21.787 38.9433 21.4005 39.4017 20.9601C40.3004 20.1064 40.543 19.9895 41.262 20.0884C42.3045 20.2232 42.8617 21.4724 42.3045 22.4251C42.0259 22.8834 32.9758 31.9156 32.2209 32.4728C30.2437 33.9377 28.1676 34.7556 25.795 34.9802C25.1569 35.0432 24.8244 35.1151 24.6895 35.2229C24.5817 35.3128 22.6405 37.245 20.3847 39.5278C16.4303 43.5002 16.2685 43.6799 16.2685 44.0034C16.2685 44.4977 16.6639 44.8662 17.1762 44.8662H17.5627L20.6363 41.8016L23.7009 38.7369L24.5457 39.1503C25.6422 39.6806 26.5948 39.9232 27.8171 39.9861L28.8057 40.0311L31.2323 42.4486C33.6498 44.8482 33.6678 44.8662 34.0453 44.8662C34.6834 44.8662 35.1058 44.2731 34.8811 43.7158C34.8182 43.572 33.5959 42.2869 32.149 40.8489L29.5247 38.2336L28.2665 38.1887C26.9633 38.1438 26.1994 37.973 25.3995 37.5686L25.058 37.3888L25.3456 37.0922C25.5973 36.8316 25.7051 36.7957 26.2713 36.7417C28.2395 36.553 30.5672 35.7262 32.3197 34.6028C33.4521 33.8658 34.4856 32.9042 39.159 28.2218C44.1379 23.2249 44.1469 23.2159 44.2997 22.1015C44.4974 20.5917 43.6436 19.0908 42.2776 18.5246C41.8282 18.3359 41.7833 18.2909 41.8282 18.0842C41.8552 17.9584 41.9271 17.6349 41.981 17.3563C42.2776 15.8284 41.2081 14.1298 39.6803 13.6805L39.3208 13.5726V12.5751C39.3208 11.6584 39.3028 11.5235 39.0691 11.0562C38.9253 10.7686 38.6377 10.3552 38.4131 10.1305C38.0356 9.73508 37.065 9.18686 36.7504 9.18686C36.6246 9.18686 36.6066 9.13294 36.6785 8.84535C36.8583 8.06346 36.7055 7.09284 36.2741 6.36487C35.9506 5.80766 35.2226 5.18754 34.6204 4.95387C33.9105 4.68425 32.7511 4.66628 32.1759 4.92691L31.7625 5.11564L31.2323 4.63033C30.9357 4.36071 30.3785 3.98325 29.974 3.78553C28.6529 3.14744 28.6349 3.13845 24.2222 3.11149C21.2295 3.08453 20.1869 3.1025 19.9533 3.19237ZM28.4732 5.08868C29.0394 5.26843 29.8932 5.76272 30.1718 6.0593L30.3695 6.275L27.7003 8.94421L25.0311 11.6134L23.8447 10.4271L22.6494 9.2318L24.3121 9.25876C25.6871 9.28572 26.0197 9.26775 26.2713 9.14193C26.8015 8.89028 26.9543 8.22523 26.5679 7.81181C26.2803 7.49726 26.1904 7.48827 24.357 7.46131C22.5775 7.42536 22.3439 7.36245 21.7238 6.67942C21.3014 6.21209 20.9778 5.1426 21.1935 4.92691C21.2295 4.89096 22.7753 4.87299 24.6266 4.89096C27.4936 4.92691 28.0687 4.95387 28.4732 5.08868ZM18.9018 8.23421C19.2702 8.39599 25.0311 14.1838 25.1569 14.5163C25.6512 15.8194 24.2132 17.1226 22.982 16.5025C22.6045 16.3137 17.311 11.0562 16.9785 10.5439C16.1337 9.24079 17.4908 7.62308 18.9018 8.23421ZM16.3134 12.6829C16.5471 12.7907 17.5267 13.7164 19.1085 15.3072C21.7417 17.9674 21.8226 18.0752 21.7058 18.8571C21.6429 19.2975 21.2654 19.8008 20.843 20.0255C20.5195 20.1872 19.8544 20.1872 19.4769 20.0255C19.3152 19.9536 18.0659 18.7762 16.6999 17.4012C14.5519 15.2353 14.2014 14.8398 14.1116 14.5073C13.77 13.1952 15.0822 12.1077 16.3134 12.6829ZM13.6442 17.0597C13.9678 17.1855 17.1942 20.3041 17.8143 21.077C18.6771 22.1465 17.9761 23.6743 16.628 23.6743C16.3943 23.6743 16.0888 23.6114 15.945 23.5395C15.5585 23.3328 11.6221 19.3424 11.5053 19.0459C11.0289 17.7427 12.3501 16.5115 13.6442 17.0597ZM11.1907 21.7241C11.4963 21.787 14.2913 24.4921 14.534 24.9505C14.6059 25.0943 14.6688 25.3998 14.6688 25.6335C14.6688 26.8738 13.3207 27.6287 12.2692 26.9816C12.1254 26.8917 11.3884 26.1907 10.6335 25.4358C9.50111 24.2854 9.25846 23.9888 9.16858 23.6653C8.92593 22.7486 9.4382 21.8948 10.3729 21.6701C10.6515 21.6072 10.6964 21.6162 11.1907 21.7241Z" fill="#E97A4E"/>
<path d="M41.2979 28.4375C40.7767 28.7251 40.6419 29.3812 41.0193 29.7946C41.6035 30.4237 42.5651 30.0193 42.5382 29.1655C42.5202 28.5543 41.8192 28.1499 41.2979 28.4375Z" fill="#E97A4E"/>
<path d="M43.3112 30.8371C43.1045 31.0438 43.0505 31.1786 43.0505 31.4752C43.0505 31.8347 43.0955 31.8976 44.2279 33.0479C44.8749 33.713 45.549 34.3151 45.7197 34.396C46.1152 34.5848 46.4837 34.5039 46.7802 34.1534C47.2296 33.6231 47.0409 33.2187 45.7377 31.9605C44.4436 30.7203 44.2548 30.5765 43.8953 30.5765C43.6617 30.5765 43.5089 30.6484 43.3112 30.8371Z" fill="#E97A4E"/>
</svg>
