<svg width="24" height="24" viewBox="0 0 24 24" fill="none" xmlns="http://www.w3.org/2000/svg">
<path d="M2 2C2 0.895508 2.89551 0 4 0H18C19.1045 0 20 0.895508 20 2V14.5C20 15.0522 19.5522 15.5 19 15.5C18.4478 15.5 18 15.0522 18 14.5V2H4V18.5H7.5C8.05225 18.5 8.5 18.9478 8.5 19.5C8.5 20.0522 8.05225 20.5 7.5 20.5H4C2.89551 20.5 2 19.6045 2 18.5V2Z" fill="white"/>
<path d="M8.5 5.5C8.5 5.22388 8.72388 5 9 5H15.5C15.7761 5 16 5.22388 16 5.5C16 5.77612 15.7761 6 15.5 6H9C8.72388 6 8.5 5.77612 8.5 5.5Z" fill="white"/>
<path d="M8.5 8.5C8.5 8.22388 8.72388 8 9 8H15.5C15.7761 8 16 8.22388 16 8.5C16 8.77612 15.7761 9 15.5 9H9C8.72388 9 8.5 8.77612 8.5 8.5Z" fill="white"/>
<path d="M9 11C8.72388 11 8.5 11.2239 8.5 11.5C8.5 11.7761 8.72388 12 9 12H12C12.2761 12 12.5 11.7761 12.5 11.5C12.5 11.2239 12.2761 11 12 11H9Z" fill="white"/>
<path d="M7.5 11.5C7.5 12.0522 7.05225 12.5 6.5 12.5C5.94775 12.5 5.5 12.0522 5.5 11.5C5.5 10.9478 5.94775 10.5 6.5 10.5C7.05225 10.5 7.5 10.9478 7.5 11.5Z" fill="white"/>
<path d="M6.5 9.5C7.05225 9.5 7.5 9.05225 7.5 8.5C7.5 7.94775 7.05225 7.5 6.5 7.5C5.94775 7.5 5.5 7.94775 5.5 8.5C5.5 9.05225 5.94775 9.5 6.5 9.5Z" fill="white"/>
<path d="M7.5 5.5C7.5 6.05225 7.05225 6.5 6.5 6.5C5.94775 6.5 5.5 6.05225 5.5 5.5C5.5 4.94775 5.94775 4.5 6.5 4.5C7.05225 4.5 7.5 4.94775 7.5 5.5Z" fill="white"/>
<path d="M14.4497 15C14.4497 14.4478 14.8977 14 15.45 14C16.0022 14 16.4502 14.4478 16.4502 15V20.467L19.5376 17.5522C19.9146 17.1482 20.5475 17.1265 20.9513 17.5034C21.3551 17.8804 21.377 18.5132 21 18.917L16.1927 23.6746C15.8051 24.1035 15.1125 24.1091 14.7188 23.6873L9.8999 18.917C9.52295 18.5132 9.5448 17.8804 9.94861 17.5034C10.3524 17.1265 10.9854 17.1482 11.3623 17.5522L14.4497 20.467V15Z" fill="white"/>
</svg>
