<svg width="48" height="48" viewBox="0 0 48 48" fill="none" xmlns="http://www.w3.org/2000/svg">
<path d="M33.458 1.00782C32.9995 1.16966 32.478 1.65518 32.2352 2.15868C32.0644 2.50033 32.0554 2.71612 32.0554 6.06978C32.0554 9.54032 32.0554 9.63023 32.2532 9.98088C32.3611 10.1787 32.5769 10.4664 32.7477 10.6282C33.2602 11.1227 33.6289 11.2216 35.0045 11.2666L36.2452 11.3026L36.2003 11.5453C36.0384 12.3275 35.508 15.5373 35.535 15.6003C35.5529 15.6452 37.1443 14.6922 39.0684 13.4784L42.5749 11.2846H43.6269C44.2023 11.2846 44.8856 11.2396 45.1374 11.1857C45.7578 11.0508 46.2972 10.6282 46.5939 10.0348L46.8457 9.54032V6.03381C46.8457 2.81502 46.8277 2.49134 46.6748 2.15868C46.4681 1.70013 45.7937 1.09773 45.3352 0.962867C45.0834 0.881947 43.4381 0.854974 39.4191 0.863965C34.6448 0.863965 33.7997 0.890938 33.458 1.00782ZM45.1823 2.60823L45.4071 2.82401V5.97987C45.4071 9.19866 45.3891 9.38747 45.0565 9.63922C44.9576 9.71115 44.481 9.74711 43.5729 9.7561H42.2243L39.9046 11.2037C38.6279 12.0039 37.5669 12.6422 37.5489 12.6242C37.531 12.6063 37.6299 11.9499 37.7647 11.1677L38.0075 9.7561H35.9935H33.9795L33.7637 9.53133L33.5389 9.31554V6.06079C33.5389 2.833 33.5389 2.79704 33.7367 2.59024L33.9256 2.38345H39.4461H44.9666L45.1823 2.60823Z" fill="#E97A4E"/>
<path d="M34.9955 4.55925L35.0225 5.30551L39.455 5.33248L43.8786 5.35046V4.58623V3.82199H39.4281H34.9685L34.9955 4.55925Z" fill="#E97A4E"/>
<path d="M34.9955 7.52629L35.0225 8.27255L37.9715 8.29952L40.9116 8.3175V7.55327V6.78903H37.9445H34.9685L34.9955 7.52629Z" fill="#E97A4E"/>
<path d="M42.4399 7.55327V8.3175H43.1592H43.8785V7.55327V6.78903H43.1592H42.4399V7.55327Z" fill="#E97A4E"/>
<path d="M21.8954 3.15667C20.9694 3.25557 19.2341 3.58824 18.371 3.831C14.8555 4.82001 11.7805 6.60923 9.21808 9.17167C6.66462 11.7161 4.90238 14.6832 3.92235 18.0818L3.62565 19.1337L2.9693 18.0368C2.60966 17.4344 2.27699 16.922 2.23204 16.895C2.17809 16.859 1.26101 17.3445 1.00027 17.5423C0.973293 17.5693 3.00527 21.0219 3.49977 21.7951C3.56271 21.885 4.04823 21.6333 5.72056 20.6353C6.90738 19.925 7.87841 19.3405 7.89639 19.3315C7.91437 19.3136 7.26702 18.1897 7.15913 18.0548C7.15913 18.0458 6.72756 18.2976 6.20608 18.6123C5.6846 18.9359 5.23505 19.1967 5.19908 19.1967C5.10917 19.1967 5.46881 17.9829 5.89139 16.895C8.14814 11.0688 13.0393 6.74409 19.1172 5.17066C22.1202 4.39743 25.5818 4.38844 28.6207 5.17066L29.5828 5.41342L29.7986 4.7301C29.9604 4.2266 29.9874 4.0288 29.9065 3.98384C29.7176 3.87595 28.351 3.55227 27.2721 3.36346C26.4539 3.21961 25.7616 3.16566 24.2331 3.14768C23.1452 3.12969 22.0932 3.13869 21.8954 3.15667Z" fill="#E97A4E"/>
<path d="M22.4347 8.38047C20.5916 8.66818 18.6855 9.59426 17.2918 10.871C16.0511 12.0128 14.9812 13.8111 14.5046 15.5733L14.2619 16.4544L14.2529 20.1407V23.8271L14.4866 24.3216C14.8283 25.0499 15.2239 25.4544 15.9342 25.7961L16.5726 26.1018L16.8153 26.875C16.9592 27.3066 17.2469 27.9629 17.4627 28.3406C17.8942 29.1138 19.0271 30.3276 19.7104 30.7502C20.0161 30.939 20.142 31.0828 20.142 31.2177C20.142 31.4425 20.3578 31.3885 16.9772 32.0089C15.7634 32.2247 14.5406 32.4944 14.2709 32.5933C12.8323 33.1328 11.7354 34.2747 11.1869 35.8121C11.0521 36.1987 10.9172 36.5314 10.8812 36.5674C10.8543 36.6123 10.2339 36.0369 9.50561 35.3086C7.71639 33.5014 7.7074 33.7622 9.73038 31.7212L11.2858 30.1658L8.54357 27.4235L5.8013 24.6722L3.81428 26.6772C2.14195 28.3675 1.7823 28.7721 1.54854 29.2667C1.10798 30.1837 0.96412 30.8671 1.00908 31.91C1.05403 32.917 1.24284 33.5644 1.72836 34.3556C1.91717 34.6703 3.95814 36.7742 7.63547 40.4425C12.8952 45.6753 13.3088 46.0619 13.8842 46.3406C15.5026 47.1049 17.4717 47.024 18.8833 46.1338C19.126 45.981 20.2589 45.001 21.3918 43.967L23.4597 42.0789L22.9023 41.5214L22.3538 40.955H30.2839C34.6446 40.955 38.214 40.928 38.214 40.8831C38.214 40.6493 36.3798 35.3806 36.1371 34.913C35.7505 34.1937 34.8244 33.2677 34.1231 32.89C33.3768 32.5034 32.9273 32.3865 30.3468 31.919C27.3618 31.3795 27.6046 31.4425 27.6136 31.2177C27.6136 31.0828 27.8204 30.8671 28.2969 30.5254C28.6745 30.2557 29.151 29.8241 29.3758 29.5723L29.7714 29.1048L30.8234 29.0688C31.6685 29.0419 31.9472 28.9969 32.235 28.8441C32.6935 28.6013 33.0531 28.2417 33.3049 27.7831C33.4937 27.4235 33.4937 27.3785 33.4937 22.1188C33.4937 17.3535 33.4757 16.7421 33.3319 16.0678C32.5317 12.3545 29.8973 9.56728 26.2559 8.57827C25.7434 8.43441 25.2399 8.38946 24.143 8.36248C23.3518 8.3445 22.5876 8.35349 22.4347 8.38047ZM25.204 9.89096C28.144 10.4035 30.6166 12.4894 31.5696 15.2676C31.9293 16.3196 32.0102 16.9579 32.0102 18.855V20.5274L31.6505 20.3925C31.2999 20.2486 31.2909 20.2396 31.2909 19.8081V19.3765H30.4367C28.2519 19.3765 26.193 18.4864 24.5566 16.8231L23.8913 16.1487L23.1001 16.895C21.3198 18.5943 19.4947 19.3765 17.3098 19.3765H16.4557V19.8081C16.4557 20.2396 16.4467 20.2486 16.087 20.3925L15.7184 20.5364L15.7634 18.4504C15.8083 16.1218 15.8623 15.825 16.4647 14.5393C17.5436 12.2196 19.6565 10.5024 22.0391 9.98986C23.3248 9.72013 24.0891 9.69316 25.204 9.89096ZM24.5027 18.7741C25.6715 19.7361 27.3618 20.5004 28.8184 20.7252C29.214 20.7881 29.5916 20.851 29.6545 20.869C29.7354 20.896 29.7624 21.4265 29.7624 23.1707C29.7624 25.6163 29.6995 26.0748 29.2769 27.0369L29.0431 27.5584L26.4627 27.5763L23.8733 27.6033V28.3226V29.0419L25.8064 29.0868L27.7394 29.1318L27.3169 29.4285C26.6785 29.869 25.8513 30.2377 25.1051 30.3995C24.2149 30.5973 22.8393 30.5344 22.0301 30.2647C20.2049 29.6443 18.8113 28.2147 18.191 26.3446C17.9662 25.6612 17.9572 25.5174 17.9122 23.2966C17.8673 20.7521 17.8583 20.8151 18.3977 20.8151C18.8293 20.8151 20.3038 20.4195 21.0411 20.0958C21.7334 19.8081 23.2979 18.8191 23.5946 18.4864C23.6935 18.3785 23.8014 18.2976 23.8463 18.2976C23.8913 18.2976 24.179 18.5134 24.5027 18.7741ZM16.4557 23.1707V24.4385L16.2219 24.2227C16.096 24.1058 15.9342 23.899 15.8623 23.7641C15.7094 23.4764 15.7004 22.7661 15.8353 22.4964C15.9702 22.2446 16.2849 21.894 16.3838 21.894C16.4197 21.894 16.4557 22.4694 16.4557 23.1707ZM31.8483 22.4425C32.163 23.0269 32.0282 23.7551 31.5247 24.2227L31.2909 24.4385V23.1617V21.876L31.4887 22.0019C31.5966 22.0738 31.7584 22.2716 31.8483 22.4425ZM32.0102 26.4345C32.0102 27.0369 31.9832 27.1448 31.7854 27.3336C31.6146 27.5134 31.4797 27.5584 31.1291 27.5584H30.6885L30.8953 26.947C31.0122 26.6143 31.1111 26.2816 31.1111 26.2097C31.1111 26.0928 31.6326 25.8231 31.9472 25.7691C31.9832 25.7691 32.0102 26.0658 32.0102 26.4345ZM8.8133 30.5704L8.4087 30.9749L6.7004 29.2667L5.0011 27.5584L5.3967 27.1538L5.8013 26.7492L7.5096 28.4575L9.2179 30.1658L8.8133 30.5704ZM7.06904 32.3686C6.6015 33.0429 6.54756 33.924 6.91619 34.6343C7.18592 35.1558 12.9132 40.8201 13.3538 41.0089C14.0461 41.2967 15.116 41.1348 15.6015 40.6853C15.7903 40.5144 15.7903 40.5144 17.4897 42.2227L19.1979 43.931L18.7304 44.3716C18.4697 44.6144 18.0201 44.92 17.7414 45.0639C17.2559 45.2977 17.139 45.3157 16.186 45.3157C14.4956 45.3157 14.9722 45.6933 8.57054 39.3006C2.57352 33.3126 2.73535 33.5014 2.50159 32.2337C2.30378 31.1728 2.67242 29.9859 3.48161 29.0868L3.8952 28.6193L5.59451 30.3276L7.3028 32.0269L7.06904 32.3686ZM23.9182 31.9909C24.6465 31.9909 25.213 31.937 25.5366 31.8471C25.8064 31.7752 26.0401 31.7212 26.0491 31.7302C26.0581 31.7392 25.5726 32.2427 24.9702 32.8451L23.8733 33.942L22.7584 32.8271L21.6435 31.7122L22.2189 31.8561C22.5966 31.946 23.172 31.9999 23.9182 31.9909ZM22.2279 34.4545L23.8283 36.0549L25.4377 34.4455L27.0471 32.8361L29.8703 33.3486C32.145 33.7622 32.7924 33.906 33.233 34.1218C33.8444 34.4185 34.4018 34.913 34.7524 35.4705C34.9503 35.7762 36.1461 39.1208 36.1461 39.3546C36.1461 39.3906 32.6935 39.4265 28.4767 39.4265H20.8163L19.4227 38.0329C18.6585 37.2687 17.9931 36.6393 17.9572 36.6393C17.9122 36.6393 17.3008 37.1608 16.5995 37.7902C14.5676 39.6423 14.4956 39.6963 14.1899 39.6963C13.9562 39.6963 13.7584 39.5434 12.9941 38.7882L12.0681 37.8801L12.4187 36.8461C12.8143 35.6683 13.165 35.0659 13.7044 34.6163C14.4057 34.0499 14.9182 33.888 17.6695 33.3666C19.108 33.1058 20.3578 32.881 20.4567 32.8721C20.5736 32.8631 21.176 33.4025 22.2279 34.4545ZM20.8433 42.4565L20.3668 42.933L18.6585 41.2247L16.9502 39.5074L17.4357 39.0579L17.9212 38.5993L19.6115 40.2897L21.3108 41.989L20.8433 42.4565Z" fill="#E97A4E"/>
<path d="M42.0444 14.899C41.9725 15.0159 41.388 15.9869 40.7407 17.0658L39.5719 19.0169L39.9495 19.2507C40.1563 19.3765 40.417 19.5384 40.5249 19.6103C40.6328 19.6822 40.7587 19.7362 40.7946 19.7362C40.8396 19.7362 41.1453 19.2686 41.4869 18.6932C41.9005 18.0099 42.1343 17.6952 42.1793 17.7761C42.2152 17.8391 42.3501 18.2796 42.476 18.7472C44.0044 24.3756 42.9075 30.4265 39.5179 35.1558C39.2302 35.5514 38.9874 35.92 38.9605 35.974C38.9245 36.0639 39.8776 36.9091 40.0214 36.9091C40.1293 36.9091 41.1273 35.4795 41.7387 34.4545C43.6628 31.2177 44.6158 27.7022 44.6248 23.8721C44.6248 21.8041 44.3281 19.7182 43.7887 17.947C43.6898 17.6233 43.6268 17.3535 43.6358 17.3356C43.6628 17.3176 44.445 17.7761 45.47 18.3965L45.7577 18.5763L46.1353 17.938C46.3421 17.5873 46.495 17.2906 46.477 17.2726C46.432 17.2277 42.5839 14.917 42.3501 14.7911C42.2062 14.7192 42.1523 14.7372 42.0444 14.899Z" fill="#E97A4E"/>
</svg>
