<svg width="48" height="48" viewBox="0 0 48 48" fill="none" xmlns="http://www.w3.org/2000/svg">
<path d="M3.93548 4.07791C3.2129 4.30156 2.56774 4.8521 2.20645 5.54887L2 5.93597V26.022V46.108L2.20645 46.4951C2.48172 47.0198 2.94624 47.493 3.46237 47.7682L3.89247 48.0005H14.4301H24.9677L25.4065 47.7682C25.9398 47.4844 26.4215 47.0026 26.671 46.4951C26.8602 46.108 26.8602 46.0822 26.886 40.8779C26.8946 38.0048 26.9204 35.6564 26.9376 35.6564C26.9978 35.6564 35.5312 40.3016 35.643 40.3962C35.7376 40.4736 35.7634 40.9123 35.7634 42.5811C35.7634 44.508 35.772 44.6887 35.9269 44.8693L36.0903 45.0758L40.7957 45.1016L45.4925 45.1274L45.7505 44.8693L46 44.6198V39.9661V35.3209L45.7935 35.0801L45.5871 34.8392H40.8989H36.2108L35.9871 35.0456L35.7634 35.2521V36.9639C35.7634 38.2715 35.7376 38.6672 35.6602 38.6586C35.6 38.6586 33.6129 37.6005 31.2473 36.3188L26.9462 33.979L26.9032 31.2865L26.8602 28.5854L26.6538 28.422C26.3957 28.2155 25.9484 28.2155 25.6903 28.422C25.4839 28.5854 25.4839 28.6026 25.4409 30.865L25.3978 33.1446L22.7656 31.7166L20.1247 30.2887L20.529 29.8413C21.4151 28.8349 22.1462 27.3037 22.3785 25.9446L22.4817 25.2908L23.7978 25.2478C25.0538 25.2048 25.1226 25.1962 25.2774 24.9983C25.5011 24.7231 25.4839 24.3618 25.2344 24.0693L25.028 23.8284L23.7462 23.8026L22.4645 23.7768L22.3699 23.1489C22.1376 21.6951 21.4065 20.2155 20.3914 19.1403L20.1075 18.8306L22.757 17.4026L25.3978 15.9661L25.4409 18.1768C25.4839 20.422 25.5269 20.6887 25.8366 20.8091C26.129 20.9209 26.4817 20.8607 26.6882 20.6456L26.9032 20.4392V17.7897V15.1403L31.2387 12.7919C33.6301 11.5102 35.6172 10.4521 35.6688 10.4521C35.7376 10.4521 35.7634 11.0026 35.7634 12.1553C35.7634 13.8327 35.7634 13.8672 35.9613 14.0478L36.1591 14.237H40.8731H45.5785L45.7849 14.022L46 13.8155V9.16178V4.49941L45.7505 4.24995L45.5011 4.00049H40.8387H36.1849L35.9785 4.21554L35.7634 4.42199V6.52952C35.7634 8.62844 35.7634 8.64565 35.5742 8.76608C35.4624 8.8349 33.4839 9.91877 31.1613 11.1747L26.9462 13.4543L26.9032 9.69511C26.8602 5.97898 26.8602 5.92737 26.6624 5.53167C26.4043 5.01554 25.8968 4.50801 25.372 4.24995L24.9677 4.0435L14.5591 4.02629C8.83011 4.01769 4.05591 4.0435 3.93548 4.07791ZM24.8215 5.6349C25.3376 5.95318 25.4409 6.23705 25.4409 7.37253V8.38758H14.4215H3.40215L3.43656 7.32092C3.46237 6.11662 3.55699 5.90156 4.11613 5.61769C4.3914 5.47146 5.06237 5.46285 14.4731 5.46285C24.3656 5.46285 24.5462 5.46285 24.8215 5.6349ZM44.5376 9.11877V12.7747H40.8817H37.2258V9.11877V5.46285H40.8817H44.5376V9.11877ZM25.4409 12.0607V14.2801L22.5075 15.8715C20.8903 16.7489 19.4194 17.5403 19.2473 17.6263L18.9204 17.7897L18.0344 17.351C16.0989 16.3962 14.0344 16.2327 11.9785 16.8779C9.57849 17.6349 7.63441 19.5446 6.8086 21.9532C5.80215 24.8951 6.54194 28.0349 8.75269 30.237C10.172 31.665 11.8151 32.422 13.914 32.6026C15.2645 32.7317 17.1054 32.3102 18.3183 31.622L18.8946 31.2865L22.1634 33.0586L25.4409 34.8306V37.0069V39.1833H14.4301H3.41935V24.5166V9.84995H14.4301H25.4409V12.0607ZM15.7634 18.0994C18.4215 18.65 20.4602 20.7403 20.9247 23.3983C21.0796 24.3102 21.0882 24.8349 20.9333 25.6779C20.4602 28.2586 18.671 30.2112 16.1075 30.9338C15.1441 31.2091 13.7161 31.2091 12.7613 30.9338C10.0258 30.1682 8.11613 27.8715 7.84946 25.0672C7.73763 23.837 8.09892 22.3059 8.76989 21.1704C9.22581 20.3876 10.2667 19.3467 11.0323 18.8994C12.4946 18.0392 14.129 17.7639 15.7634 18.0994ZM44.5204 39.9747L44.5376 43.6564H40.8817H37.2258V39.9575V36.2586L40.8645 36.2758L44.4946 36.3016L44.5204 39.9747ZM25.4409 43.2005C25.4409 45.5231 25.4323 45.6951 25.2688 45.9618C25.1742 46.1166 24.9763 46.3145 24.8215 46.4091C24.5462 46.5811 24.3656 46.5811 14.4731 46.5811C5.06237 46.5811 4.3914 46.5725 4.11613 46.4263C3.95269 46.3489 3.73763 46.1682 3.64301 46.0392C3.47097 45.8069 3.46237 45.6693 3.43656 43.2607L3.41075 40.7317H14.4301H25.4409V43.2005Z" fill="#E97A4E"/>
<path d="M10.2581 6.45207C9.98281 6.71874 9.98281 7.09723 10.2495 7.41551L10.4559 7.65637H14.4129H18.3699L18.5936 7.44992C18.8946 7.16605 18.8946 6.73594 18.6022 6.45207L18.3957 6.23702H14.4301H10.4645L10.2581 6.45207Z" fill="#E97A4E"/>
<path d="M22.0258 6.42631C21.7677 6.71878 21.7333 6.89942 21.8624 7.2177C22.0172 7.5876 22.3699 7.73383 23.0409 7.68222C23.4882 7.64781 23.6086 7.6048 23.7806 7.40695C24.0387 7.09727 24.0387 6.71878 23.7634 6.45211C23.5828 6.26286 23.4796 6.23706 22.8774 6.23706C22.2839 6.23706 22.1806 6.26286 22.0258 6.42631Z" fill="#E97A4E"/>
<path d="M39.0753 7.0285C38.7054 7.22635 38.6882 7.31238 38.6882 9.13603C38.6882 11.4844 38.5161 11.3124 40.8301 11.3124C41.7764 11.3124 42.6108 11.2866 42.6882 11.2608C43.0151 11.1317 43.0753 10.7876 43.0753 9.07582V7.4242L42.8258 7.17474L42.5764 6.92528H40.9075C39.8753 6.92528 39.1785 6.96829 39.0753 7.0285ZM41.6129 9.11883V9.85001H40.8817H40.1506V9.11883V8.38764H40.8817H41.6129V9.11883Z" fill="#E97A4E"/>
<path d="M14.1291 20.9639C13.7678 21.1532 13.742 21.2822 13.742 22.5553V23.7854H12.6237C11.3076 23.7854 10.9807 23.88 10.8344 24.2929C10.7226 24.6026 10.8 24.8693 11.0495 25.0929C11.1871 25.222 11.4194 25.2478 12.4516 25.265L13.699 25.2908L13.7248 26.5381C13.742 27.5704 13.7678 27.8026 13.8968 27.9403C14.1205 28.1897 14.3871 28.2671 14.6968 28.1553C15.1097 28.0091 15.2043 27.6822 15.2043 26.3661V25.2478H16.4172C17.0796 25.2478 17.6904 25.2134 17.7764 25.1618C18.043 25.0241 18.1721 24.6026 18.0344 24.2929C17.871 23.88 17.5355 23.7854 16.2796 23.7854H15.2043V22.7187C15.2043 21.5144 15.1183 21.1704 14.7656 20.9897C14.4817 20.8349 14.3613 20.8349 14.1291 20.9639Z" fill="#E97A4E"/>
<path d="M38.8775 38.0049C38.6968 38.1941 38.6882 38.2801 38.6882 39.9661C38.6882 41.6178 38.6968 41.7468 38.8603 41.9188C39.1183 42.1941 39.2646 42.2113 41.0452 42.1769L42.6624 42.1511L42.8689 41.9016L43.0839 41.6608L43.0581 39.8973C43.0237 37.6178 43.2302 37.807 40.8474 37.807C39.0925 37.807 39.0581 37.807 38.8775 38.0049ZM41.613 40.0006V40.7317H40.8818H40.1506V40.0006V39.2694H40.8818H41.613V40.0006Z" fill="#E97A4E"/>
<path d="M12.8817 41.5488C12.4602 41.6779 11.9182 42.151 11.7032 42.5725C11.5139 42.9338 11.4537 43.9058 11.5914 44.3789C11.729 44.8693 12.1763 45.394 12.6494 45.6262C12.9849 45.7897 13.1742 45.8069 14.4387 45.8069C16.0731 45.8069 16.3397 45.7295 16.8645 45.1187C17.243 44.6714 17.3548 44.3273 17.3548 43.5617C17.3548 42.5639 16.8215 41.8069 15.9096 41.5402C15.3935 41.3768 13.4064 41.3854 12.8817 41.5488ZM15.5742 42.9768C15.8408 43.123 15.8924 43.2176 15.8924 43.6477C15.8924 44.3015 15.7978 44.3445 14.4215 44.3445C13.2946 44.3445 13.2258 44.3359 13.1053 44.1553C13.0279 44.052 12.9677 43.8026 12.9677 43.6047C12.9677 43.3123 13.0107 43.2004 13.1914 43.0628C13.3978 42.908 13.5441 42.8822 14.4043 42.8822C14.9806 42.8822 15.4623 42.9252 15.5742 42.9768Z" fill="#E97A4E"/>
<path d="M36.1505 19.5016C35.7721 19.6995 35.7634 19.7769 35.7634 21.8242V23.7855H34.6452C33.329 23.7855 33.0022 23.8801 32.8559 24.293C32.7441 24.6027 32.8215 24.8694 33.071 25.093C33.2086 25.222 33.4409 25.2479 34.4731 25.2651L35.7204 25.2909L35.7634 27.3382C35.8151 29.6091 35.7979 29.5747 36.4 29.678C36.5462 29.7038 38.671 29.721 41.1226 29.7038L45.5871 29.678L45.7936 29.4371L46 29.1962V24.5511V19.8973L45.7505 19.6479L45.5011 19.3984H40.9075C37.7591 19.407 36.271 19.4328 36.1505 19.5016ZM44.5376 24.5597V28.2586H40.8817H37.2258V24.5597V20.8608H40.8817H44.5376V24.5597Z" fill="#E97A4E"/>
<path d="M39.2044 22.3832C39.1355 22.409 38.9893 22.5122 38.8861 22.6069C38.6968 22.7789 38.6882 22.8305 38.6882 24.5595V26.3402L38.9119 26.5466C39.1269 26.7445 39.1786 26.7531 40.7011 26.7789C42.4732 26.8133 42.8345 26.7359 42.9979 26.3058C43.0495 26.1595 43.0753 25.4284 43.0581 24.4133C43.0237 22.2112 43.1872 22.3746 40.985 22.3488C40.0818 22.3402 39.2732 22.3574 39.2044 22.3832ZM41.5958 24.5337L41.6216 25.2477H40.8818H40.1506V24.5165V23.7768L40.8646 23.8026L41.57 23.8284L41.5958 24.5337Z" fill="#E97A4E"/>
<path d="M27.3506 23.9145C27.0323 24.0521 26.8689 24.3876 26.9463 24.7489C27.0495 25.2134 27.2043 25.2478 29.1398 25.2478C30.8861 25.2478 30.9205 25.2478 31.1011 25.05C31.3678 24.7661 31.3506 24.3016 31.0667 24.0349C30.8517 23.8371 30.8086 23.8284 29.2431 23.8112C27.9871 23.794 27.5742 23.8112 27.3506 23.9145Z" fill="#E97A4E"/>
</svg>
