<svg width="48" height="49" viewBox="0 0 48 49" fill="none" xmlns="http://www.w3.org/2000/svg">
<path d="M14.6946 0.6895C14.0742 0.839589 13.1637 1.3699 12.7234 1.85019C12.5033 2.09033 12.1731 2.59063 12.003 2.96085L11.6828 3.63124L11.6528 8.98442L11.6227 14.3376H10.8023C10.1118 14.3476 9.90172 14.3876 9.47147 14.6078C8.38082 15.1781 7.62037 16.5589 7.78046 17.6696C7.91054 18.6201 8.26075 19.1504 9.66158 20.5713L10.9824 21.9021L10.6822 22.1222C9.8617 22.7226 9.41143 23.5731 9.40142 24.5336C9.40142 24.8638 9.43144 25.2341 9.46146 25.3441C9.52149 25.5142 9.45145 25.5743 9.0312 25.7243C8.25074 26.0045 7.72043 26.4648 7.3402 27.2152C7.05003 27.7856 7 27.9857 7 28.576C7 29.5666 7.32019 30.207 8.33079 31.2376L9.12126 32.0481L8.57093 32.3383C7.58034 32.8586 7 33.8392 7 35.0098C7 36.2006 7.29017 36.6308 9.61155 38.9222L11.6027 40.8833L11.6628 41.6638C11.7728 43.1647 12.6233 44.3754 14.0142 45.0358L14.6846 45.356L18.9871 45.386L23.2897 45.416L24.9006 47.007L26.5016 48.6079H36.0372H45.5629L45.803 48.3578C45.9631 48.1977 46.0532 48.0076 46.0532 47.7874C46.0532 47.4973 45.793 47.2071 43.6117 45.0058L41.1602 42.5543L40.4098 39.5525L39.6594 36.5508L40.0596 33.7591L40.4598 30.9675L39.5993 26.2747C39.129 23.6931 38.6788 21.4318 38.6087 21.2417C38.2385 20.3712 37.0878 19.7108 36.1373 19.8208L35.657 19.8809L35.627 11.7461L35.597 3.62124L35.2267 2.86079C34.7765 1.95025 34.1961 1.38992 33.2656 0.949655L32.5952 0.629465L23.84 0.609453C18.757 0.599447 14.9247 0.639471 14.6946 0.6895ZM18.0365 3.53119C18.0365 4.84196 18.0465 4.902 18.2867 5.13213L18.5268 5.38228H23.6399H28.7529L28.993 5.13213C29.2332 4.902 29.2432 4.84196 29.2432 3.53119V2.18038H30.604C31.3845 2.18038 32.1449 2.23041 32.385 2.30046C32.9354 2.46055 33.7659 3.29104 33.926 3.84137C34.016 4.16156 34.046 8.1039 34.046 20.8314V37.4013H25.1207H16.1854L15.9953 36.931C15.8653 36.6208 15.495 36.1405 14.9647 35.5902L14.1442 34.7397L14.5745 34.5196C15.6151 34.0193 16.2555 33.0487 16.2755 31.948C16.2855 31.6178 16.2555 31.2276 16.2055 31.0775C16.1454 30.8474 16.1654 30.7974 16.3155 30.7974C16.6657 30.7974 17.5362 30.277 17.9265 29.8368L18.3167 29.3965H20.3279C22.3391 29.3965 22.3491 29.3965 22.5892 29.1464L22.8394 28.9062V26.1946V23.483L22.5892 23.2429L22.3491 22.9927H19.6375H16.9259L16.6857 23.2429C16.5056 23.413 16.4356 23.5931 16.4356 23.8532V24.2235L15.3049 23.1228C14.4844 22.3323 14.0342 21.9721 13.704 21.842L13.2337 21.6619V12.9568C13.2337 6.41289 13.2637 4.15155 13.3538 3.84137C13.5039 3.33107 14.3444 2.47056 14.8346 2.31046C15.0248 2.25043 15.8252 2.2004 16.6157 2.19039L18.0365 2.18038V3.53119ZM27.6422 2.98086V3.78133H23.6399H19.6375V2.98086V2.18038H23.6399H27.6422V2.98086ZM11.3826 16.0086L11.6327 16.1186V18.1799V20.2411L10.5821 19.1905C9.41143 18.0298 9.24133 17.6996 9.43144 16.9992C9.5315 16.5989 9.93174 16.1287 10.2819 15.9786C10.5821 15.8585 11.0924 15.8685 11.3826 16.0086ZM36.8077 21.5419C36.9277 21.6219 37.0678 21.812 37.1379 21.9621C37.1979 22.1122 37.6081 24.2134 38.0484 26.6249L38.8389 31.0075L38.4386 33.8291L38.0384 36.6508L38.8789 40.0428L39.7294 43.4348L41.5205 45.2259L43.3015 47.007H35.2467H27.192L26.4015 46.2165L25.611 45.416L29.1031 45.386L32.6052 45.356L33.3656 44.9858C34.2762 44.5355 34.8365 43.9552 35.2768 43.0246L35.597 42.3542L35.647 32.0681L35.697 21.772L35.9372 21.5819C36.2173 21.3518 36.5275 21.3417 36.8077 21.5419ZM13.1136 23.3329C13.2637 23.413 14.2043 24.3035 15.1949 25.3141C16.8058 26.9351 17.0259 27.1952 17.076 27.5454C17.2461 28.546 16.3355 29.4265 15.355 29.2464C15.0448 29.1964 14.6745 28.8762 13.1536 27.3653C12.143 26.3647 11.2525 25.4242 11.1725 25.2741C10.9924 24.9139 10.9924 24.2635 11.1825 23.8833C11.5027 23.2729 12.4732 22.9927 13.1136 23.3329ZM21.2384 26.1946V27.7956H19.9977H18.757L18.6369 27.2753C18.5769 26.9851 18.4168 26.5548 18.2867 26.3147C18.0966 25.9745 18.0365 25.7243 18.0365 25.2341V24.5937H19.6375H21.2384V26.1946ZM10.432 27.1952C10.6822 27.2653 11.2725 27.7856 12.5633 29.0663C13.5439 30.0469 14.4144 30.9675 14.4944 31.1175C14.8246 31.7579 14.5445 32.7285 13.9341 33.0487C13.5639 33.2388 12.9035 33.2388 12.5533 33.0587C12.4032 32.9786 11.4927 32.1081 10.5121 31.1275C8.60095 29.1864 8.45086 28.9563 8.65098 28.2258C8.76104 27.8056 9.31137 27.2352 9.65157 27.1652C10.0418 27.0952 10.0718 27.0952 10.432 27.1952ZM10.7122 33.7391C11.0324 33.9092 14.3644 37.2612 14.5245 37.5714C14.8246 38.1717 14.5145 39.1523 13.9341 39.4525C13.5939 39.6326 12.9135 39.6526 12.6033 39.4925C12.2931 39.3324 8.94115 36.0004 8.77105 35.6802C8.16069 34.5196 9.55151 33.1287 10.7122 33.7391ZM34.046 40.363C34.046 41.1435 33.996 41.9039 33.926 42.1441C33.7659 42.6944 32.9354 43.5249 32.385 43.685C31.7947 43.8551 15.485 43.8551 14.8947 43.685C14.3444 43.5249 13.5139 42.6944 13.3538 42.1441C13.1336 41.3936 13.1637 41.3536 13.9041 41.1635C14.9547 40.9033 15.7252 40.253 16.0554 39.3424L16.1754 39.0022H25.1107H34.046V40.363Z" fill="#E97A4E"/>
<path d="M30.8442 4.58185V5.38232H31.6447H32.4452V4.58185V3.78138H31.6447H30.8442V4.58185Z" fill="#E97A4E"/>
<path d="M19.6375 9.38471V10.1852H20.4379H21.2384V9.38471V8.58423H20.4379H19.6375V9.38471Z" fill="#E97A4E"/>
<path d="M22.8394 9.38471V10.1852H23.6398H24.4403V9.38471V8.58423H23.6398H22.8394V9.38471Z" fill="#E97A4E"/>
<path d="M26.0413 9.38471V10.1852H26.8417H27.6422V9.38471V8.58423H26.8417H26.0413V9.38471Z" fill="#E97A4E"/>
<path d="M16.6857 15.2382L16.4355 15.4783V18.1899V20.9016L16.6857 21.1417L16.9258 21.3918H19.6374H22.3491L22.5892 21.1417L22.8393 20.9016V18.1899V15.4783L22.5892 15.2382L22.3491 14.988H19.6374H16.9258L16.6857 15.2382ZM21.2384 18.1899V19.7909H19.6374H18.0365V18.1899V16.589H19.6374H21.2384V18.1899Z" fill="#E97A4E"/>
<path d="M24.6906 15.2382L24.4404 15.4783V18.1899V20.9016L24.6906 21.1417L24.9307 21.3918H27.6423H30.3539L30.5941 21.1417L30.8442 20.9016V18.1899V15.4783L30.5941 15.2382L30.3539 14.988H27.6423H24.9307L24.6906 15.2382ZM29.2433 18.1899V19.7909H27.6423H26.0414V18.1899V16.589H27.6423H29.2433V18.1899Z" fill="#E97A4E"/>
<path d="M24.6906 23.2428L24.4404 23.483V26.1946V28.9062L24.6906 29.1463L24.9307 29.3965H27.6423H30.3539L30.5941 29.1463L30.8442 28.9062V26.1946V23.483L30.5941 23.2428L30.3539 22.9927H27.6423H24.9307L24.6906 23.2428ZM29.2433 26.1946V27.7955H27.6423H26.0414V26.1946V24.5936H27.6423H29.2433V26.1946Z" fill="#E97A4E"/>
<path d="M19.6375 34.9998V35.8003H20.4379H21.2384V34.9998V34.1993H20.4379H19.6375V34.9998Z" fill="#E97A4E"/>
<path d="M22.8394 34.9998V35.8003H23.6398H24.4403V34.9998V34.1993H23.6398H22.8394V34.9998Z" fill="#E97A4E"/>
<path d="M26.0413 34.9998V35.8003H26.8417H27.6422V34.9998V34.1993H26.8417H26.0413V34.9998Z" fill="#E97A4E"/>
<path d="M22.0388 41.4036V42.2041H23.6398H25.2407V41.4036V40.6032H23.6398H22.0388V41.4036Z" fill="#E97A4E"/>
</svg>
