<svg width="70" height="38" viewBox="0 0 70 38" fill="none" xmlns="http://www.w3.org/2000/svg">
<path d="M8.61284 30.8954C7.04823 30.6516 5.42357 30.659 3.86017 30.8954C2.74235 31.067 1.63909 31.5781 1.02752 32.5661C0.388161 33.6179 -0.00985436 34.886 0.000185581 36.1219C0.00880774 37.1102 0.959011 37.6911 1.85039 37.8175C3.41389 38.0618 5.06253 38.0565 6.62799 37.8274C7.66761 37.7711 7.938 37.0542 8.18894 36.1667C6.64669 36.4895 4.97569 36.8176 3.41632 36.4261C3.08944 36.3558 2.81506 36.0992 2.72312 35.7778C2.57213 34.8107 2.95321 33.7067 3.52105 32.9301C3.77732 32.6189 4.12709 32.3986 4.51846 32.3018C5.94448 31.9794 7.77174 32.0863 9.13648 32.6409L9.39581 31.833C9.65173 31.2311 9.16172 30.9608 8.61284 30.8954Z" fill="#CA4E1C"/>
<path d="M59.406 34.157C59.9224 34.1254 60.4039 33.8981 60.7375 33.4987C61.4635 32.6497 61.3409 30.8157 59.8447 30.8157C59.7151 30.8157 54.6334 30.8157 54.1945 30.8157C53.7368 30.7946 53.3441 31.0617 53.2719 31.5239L51.4815 37.8923C51.8057 37.8923 55.9699 37.9272 56.9224 37.9272C57.7334 37.9308 58.6128 37.9108 59.3611 37.5632C60.664 36.9317 61.5077 34.1042 59.406 34.157ZM56.1045 31.8181C56.2591 31.8181 58.0146 31.8181 58.1492 31.8181C58.2459 31.8075 58.3436 31.8238 58.4316 31.8652C58.5195 31.9065 58.5944 31.9713 58.648 32.0525C58.7234 32.2603 58.7234 32.488 58.648 32.6958C58.5955 32.9268 58.4953 33.1443 58.3537 33.3342C58.2528 33.4641 58.113 33.5584 57.9547 33.6035C57.7927 33.6498 57.6246 33.6717 57.456 33.6683H55.177L55.5759 32.237C55.6342 31.9992 55.8597 31.8173 56.1045 31.8181ZM56.9623 36.7004C56.073 36.7004 55.1836 36.7004 54.2942 36.7004L54.8478 34.8253H57.2067C57.8873 34.8253 58.2769 35.0254 58.0395 35.7479C57.9191 36.2889 57.5479 36.6706 56.9623 36.7004Z" fill="#CA4E1C"/>
<path d="M21.7088 30.8057H20.0132C19.3944 30.7724 19.0924 31.0587 18.9509 31.6335L17.1955 37.8823H24.2622L24.6113 36.5608H20.073L21.7088 30.8057Z" fill="#CA4E1C"/>
<path d="M42.7642 30.8056H41.1983L40.0014 35.0496C39.911 35.5075 39.6598 35.9178 39.2932 36.2066C38.6004 36.6003 37.7165 36.6185 36.9543 36.431C36.3501 36.2905 36.4844 35.46 36.6351 35.0347L37.827 30.8056H36.2411C35.3326 30.7625 35.2008 31.1557 34.9794 31.9427C34.6267 33.2038 34.2251 34.461 33.9521 35.7428C33.7075 36.8867 34.3914 37.6245 35.513 37.7776C36.9685 38.0043 38.5059 37.9897 39.9515 37.7077C40.9472 37.521 41.8115 36.8969 42.2057 35.9523C42.7445 34.6641 43.056 33.2838 43.4325 31.9427C43.6617 31.1857 43.7168 30.7429 42.7642 30.8056Z" fill="#CA4E1C"/>
<path fill-rule="evenodd" clip-rule="evenodd" d="M48.2044 0.00011488H63.4847C67.2176 -0.023647 70.028 3.64282 69.0353 7.24133L65.2152 21.0505C64.5631 23.3964 62.4254 25.1642 59.9938 25.2895H50.5183C50.5209 25.3082 50.5233 25.327 50.5257 25.3457H41.0338C41.0367 25.327 41.0398 25.3082 41.0429 25.2895H33.7568C30.6307 25.2881 28.2896 22.2144 29.1189 19.2003L34.3952 0.119803H42.8732L37.3375 20.2326H56.2884C56.685 20.2322 57.0432 19.961 57.1511 19.5793L60.8515 6.18906C61.0071 5.6301 60.574 5.05843 59.9938 5.057H55.296L52.4483 15.4251H43.9703L48.2044 0.00011488ZM19.4218 25.3457H9.94763C9.94798 25.3436 9.94834 25.3415 9.94869 25.3394H7.66462C4.71668 25.3208 2.52214 22.4148 3.31091 19.5743L4.46293 15.3952C5.29505 12.3745 8.12207 10.222 11.2553 10.2236H26.9945L25.7278 15.2805H12.9709L11.5894 20.2675H24.466L24.0072 21.8883C23.4382 23.9001 21.5098 25.3289 19.4191 25.3294C19.42 25.3348 19.4209 25.3403 19.4218 25.3457ZM45.7488 30.7153H45.7875C45.7811 30.7154 45.7746 30.7154 45.7682 30.7154C45.7617 30.7154 45.7553 30.7154 45.7488 30.7153ZM28.2562 5.18167L29.5229 0.119805H12.7713C10.3876 0.121529 8.2372 1.75763 7.59976 4.0546L7.26562 5.27643L28.2562 5.18167Z" fill="#EA6732"/>
</svg>
