<svg width="24" height="24" viewBox="0 0 24 24" fill="none" xmlns="http://www.w3.org/2000/svg">
<path d="M8.15 4.29986H15.85C16.5593 4.29986 16.5593 5.39986 15.85 5.39986H8.15C7.44067 5.39986 7.44067 4.29986 8.15 4.29986Z" fill="#EA6732"/>
<path d="M8.15 6.49986C7.44067 6.49986 7.44067 7.59986 8.15 7.59986H15.85C16.5593 7.59986 16.5593 6.49986 15.85 6.49986H8.15Z" fill="#EA6732"/>
<path d="M8.15 8.69986H15.85C16.5593 8.69986 16.5593 9.79986 15.85 9.79986H8.15C7.44067 9.79986 7.44067 8.69986 8.15 8.69986Z" fill="#EA6732"/>
<path fill-rule="evenodd" clip-rule="evenodd" d="M20.25 6.5L22.2493 8.09937C22.7238 8.47891 23 9.05356 23 9.66115V20.2499C23 21.4649 22.015 22.4499 20.8 22.4499H3.2C1.98497 22.4499 1 21.4649 1 20.2499V9.66115C1 9.05356 1.2762 8.47891 1.75066 8.09937L3.75 6.5L3.75 2.1C3.75 1.49249 4.24249 1 4.85 1H19.15C19.7575 1 20.25 1.49249 20.25 2.1V6.5ZM4.85 9.79985L11.4341 13.7503C11.7824 13.9593 12.2176 13.9593 12.5659 13.7503L19.15 9.79986V2.1L4.85 2.1L4.85 9.79985ZM14.2413 14.8707L21.5 10.5V20C21.5 20.5523 21.0523 21 20.5 21H3.5C2.94772 21 2.5 20.5523 2.5 20V10.5L9.75869 14.8707L5.12287 17.5749C4.51016 17.9323 5.06442 18.8825 5.67713 18.5251L10.9 15.4784C11.6113 15.7299 12.3887 15.7299 13.1 15.4784L18.3229 18.5251C18.9356 18.8825 19.4898 17.9323 18.8771 17.5749L14.2413 14.8707Z" fill="#EA6732"/>
</svg>
