<svg width="24" height="24" viewBox="0 0 24 24" fill="none" xmlns="http://www.w3.org/2000/svg">
<path fill-rule="evenodd" clip-rule="evenodd" d="M22 19.093V3.33325L18.5 2.16675V9.89185C18.5 10.5367 17.5 10.5367 17.5 9.89185V2.16675C15.8908 2.70312 14.1935 3.53959 12.5 3.7522V9.39185C12.5 10.0367 11.5 10.0367 11.5 9.39185V3.7522C9.80652 3.53959 8.10919 2.70312 6.5 2.16675V17.8918C6.5 17.8918 5.74362 17.9773 5.36755 18.1025L2.63245 19.0144C1.3374 19.446 0 18.4819 0 17.1169V3.33325C0 2.47241 0.550873 1.70825 1.36755 1.43604L5.36755 0.102539C5.77808 -0.0341797 6.22192 -0.0341797 6.63245 0.102539L11.3676 1.68091C11.7781 1.81787 12.2219 1.81787 12.6324 1.68091L17.3676 0.102539C17.7781 -0.0341797 18.2219 -0.0341797 18.6324 0.102539L22.6324 1.43604C23.4491 1.70825 24 2.47241 24 3.33325V17.1169C24 18.1431 23.2442 18.9426 22.3188 19.093H22ZM5.5 16.0312V2.16675L2 3.33325V17.1169C3.13232 16.7395 4.30692 16.181 5.5 16.0312Z" fill="#EA6732"/>
<path fill-rule="evenodd" clip-rule="evenodd" d="M20.5 17.3918C20.5 20.9817 17.5898 23.8918 14 23.8918C10.4102 23.8918 7.5 20.9817 7.5 17.3918C7.5 13.802 10.4102 10.8918 14 10.8918C17.5898 10.8918 20.5 13.802 20.5 17.3918ZM18.5 17.3918C18.5 19.8772 16.4853 21.8918 14 21.8918C13.1435 21.8918 12.3429 21.6526 11.6614 21.2373L15.0853 17.959L16.4337 13.606C17.6768 14.4067 18.5 15.8032 18.5 17.3918ZM16.3386 13.5464C15.6571 13.1311 14.8565 12.8918 14 12.8918C11.5147 12.8918 9.5 14.9065 9.5 17.3918C9.5 18.9805 10.3232 20.377 11.5663 21.1777L12.9147 16.8247L16.3386 13.5464ZM14.5 17.3918C14.5 17.668 14.2762 17.8918 14 17.8918C13.7238 17.8918 13.5 17.668 13.5 17.3918C13.5 17.1157 13.7238 16.8918 14 16.8918C14.2762 16.8918 14.5 17.1157 14.5 17.3918Z" fill="#EA6732"/>
</svg>
