<svg width="24" height="24" viewBox="0 0 24 24" fill="none" xmlns="http://www.w3.org/2000/svg">
<path d="M10.3854 18.7113C8.42679 17.2935 6.68337 15.5566 5.26473 13.5981C4.09098 11.9776 3 10.0239 3 7.96716C3 6.79624 3.39436 5.76635 4.27334 4.92465C5.06573 4.15979 6.51807 3.70227 7.28389 4.76117L9.23938 7.51305C9.84401 8.35806 9.77268 9.07459 9.04838 9.81991L8.40262 10.4829C8.20414 10.6811 8.25367 10.9577 8.36623 11.1822C9.12907 12.6424 11.362 14.8477 12.8047 15.6143C13.0421 15.7159 13.3127 15.7835 13.5142 15.5689L14.1599 14.9331C14.892 14.2022 15.6273 14.1471 16.4702 14.7243L19.2624 16.7042C20.3223 17.4394 19.788 18.9061 19.0805 19.6831C18.2559 20.5913 17.2281 21 16.0518 21C13.9874 21 12.0114 19.8884 10.3854 18.7113Z" fill="#EA6732"/>
<path d="M19.6454 4.8865L19.5009 9.48182C19.4666 10.5826 17.7595 10.518 17.7938 9.41727L17.8727 7.04604L12.8351 12.1016C12.4963 12.4404 11.947 12.4404 11.6082 12.1016C11.2694 11.7628 11.2694 11.2134 11.6082 10.8745L16.6743 5.7906L14.2245 5.84733C13.1239 5.88162 13.0594 4.17424 14.1599 4.13995L18.7451 4.00106C19.2379 3.97786 19.6608 4.3939 19.6454 4.8865Z" fill="#EA6732"/>
</svg>
